HIERARCHY
ROOT Hips
{
  OFFSET 0.0000 96.6554 0.0000
  CHANNELS 6 Xposition Yposition Zposition Zrotation Xrotation Yrotation
  JOINT Spine
  {
    OFFSET 0.0000 13.2344 0.0000
    CHANNELS 3 Zrotation Xrotation Yrotation
    JOINT Spine1
    {
      OFFSET 0.0000 12.9244 0.0000
      CHANNELS 3 Zrotation Xrotation Yrotation
      JOINT Spine2
      {
        OFFSET 0.0000 13.3596 0.0000
        CHANNELS 3 Zrotation Xrotation Yrotation
        JOINT LeftShoulder
        {
          OFFSET 7.2389 10.7865 0.0000
          CHANNELS 3 Zrotation Xrotation Yrotation
          JOINT LeftArm
          {
            OFFSET 0.0000 13.8402 0.0000
            CHANNELS 3 Zrotation Xrotation Yrotation
            JOINT LeftForeArm
            {
              OFFSET -0.0001 26.8373 0.0000
              CHANNELS 3 Zrotation Xrotation Yrotation
              JOINT LeftHand
              {
                OFFSET 0.0000 29.5519 0.0000
                CHANNELS 3 Zrotation Xrotation Yrotation
                JOINT LeftHandIndex1
                {
                  OFFSET -2.6557 8.3719 0.1068
                  CHANNELS 3 Zrotation Xrotation Yrotation
                  JOINT LeftHandIndex2
                  {
                    OFFSET 0.0000 4.7496 0.0000
                    CHANNELS 3 Zrotation Xrotation Yrotation
                    JOINT LeftHandIndex3
                    {
                      OFFSET 0.0000 2.9220 0.0000
                      CHANNELS 3 Zrotation Xrotation Yrotation
                      End Site
                      {
                        OFFSET 0.0000 1.3566 0.0000
                      }
                    }
                  }
                }
                JOINT LeftHandMiddle1
                {
                  OFFSET -0.5651 8.4368 0.1068
                  CHANNELS 3 Zrotation Xrotation Yrotation
                  JOINT LeftHandMiddle2
                  {
                    OFFSET 0.0000 4.8759 0.0000
                    CHANNELS 3 Zrotation Xrotation Yrotation
                    JOINT LeftHandMiddle3
                    {
                      OFFSET 0.0000 3.2160 0.0000
                      CHANNELS 3 Zrotation Xrotation Yrotation
                      End Site
                      {
                        OFFSET 0.0000 1.4991 0.0000
                      }
                    }
                  }
                }
                JOINT LeftHandPinky1
                {
                  OFFSET 3.2526 7.2771 0.1068
                  CHANNELS 3 Zrotation Xrotation Yrotation
                  JOINT LeftHandPinky2
                  {
                    OFFSET 0.0000 3.6852 0.0000
                    CHANNELS 3 Zrotation Xrotation Yrotation
                    JOINT LeftHandPinky3
                    {
                      OFFSET 0.0000 2.3164 0.0000
                      CHANNELS 3 Zrotation Xrotation Yrotation
                      End Site
                      {
                        OFFSET 0.0000 1.1205 0.0000
                      }
                    }
                  }
                }
                JOINT LeftHandRing1
                {
                  OFFSET 1.4936 8.0949 0.1069
                  CHANNELS 3 Zrotation Xrotation Yrotation
                  JOINT LeftHandRing2
                  {
                    OFFSET 0.0000 4.5543 0.0000
                    CHANNELS 3 Zrotation Xrotation Yrotation
                    JOINT LeftHandRing3
                    {
                      OFFSET 0.0000 2.9372 0.0000
                      CHANNELS 3 Zrotation Xrotation Yrotation
                      End Site
                      {
                        OFFSET 0.0000 1.3500 0.0000
                      }
                    }
                  }
                }
                JOINT LeftHandThumb1
                {
                  OFFSET -2.8891 2.1558 0.0984
                  CHANNELS 3 Zrotation Xrotation Yrotation
                  JOINT LeftHandThumb2
                  {
                    OFFSET 0.0000 4.1082 0.0000
                    CHANNELS 3 Zrotation Xrotation Yrotation
                    JOINT LeftHandThumb3
                    {
                      OFFSET 0.0000 3.1181 0.0000
                      CHANNELS 3 Zrotation Xrotation Yrotation
                      End Site
                      {
                        OFFSET 0.0000 1.7295 0.0000
                      }
                    }
                  }
                }
              }
            }
          }
        }
        JOINT Neck
        {
          OFFSET 0.0000 18.7818 0.0000
          CHANNELS 3 Zrotation Xrotation Yrotation
          JOINT Head
          {
            OFFSET 0.0000 11.3439 0.0000
            CHANNELS 3 Zrotation Xrotation Yrotation
            End Site
            {
              OFFSET 0.0000 8.1622 0.0000
            }
          }
        }
        JOINT RightShoulder
        {
          OFFSET -7.2390 10.7865 0.0000
          CHANNELS 3 Zrotation Xrotation Yrotation
          JOINT RightArm
          {
            OFFSET 0.0000 13.8401 0.0000
            CHANNELS 3 Zrotation Xrotation Yrotation
            JOINT RightForeArm
            {
              OFFSET 0.0000 26.8374 0.0000
              CHANNELS 3 Zrotation Xrotation Yrotation
              JOINT RightHand
              {
                OFFSET -0.0001 29.5519 0.0000
                CHANNELS 3 Zrotation Xrotation Yrotation
                JOINT RightHandIndex1
                {
                  OFFSET 2.6557 8.3720 0.1068
                  CHANNELS 3 Zrotation Xrotation Yrotation
                  JOINT RightHandIndex2
                  {
                    OFFSET 0.0000 4.7496 0.0000
                    CHANNELS 3 Zrotation Xrotation Yrotation
                    JOINT RightHandIndex3
                    {
                      OFFSET 0.0000 2.9221 0.0000
                      CHANNELS 3 Zrotation Xrotation Yrotation
                      End Site
                      {
                        OFFSET 0.0000 1.3566 0.0000
                      }
                    }
                  }
                }
                JOINT RightHandMiddle1
                {
                  OFFSET 0.5651 8.4369 0.1068
                  CHANNELS 3 Zrotation Xrotation Yrotation
                  JOINT RightHandMiddle2
                  {
                    OFFSET 0.0000 4.8760 0.0000
                    CHANNELS 3 Zrotation Xrotation Yrotation
                    JOINT RightHandMiddle3
                    {
                      OFFSET 0.0000 3.2161 0.0000
                      CHANNELS 3 Zrotation Xrotation Yrotation
                      End Site
                      {
                        OFFSET 0.0000 1.4991 0.0000
                      }
                    }
                  }
                }
                JOINT RightHandPinky1
                {
                  OFFSET -3.2526 7.2771 0.1068
                  CHANNELS 3 Zrotation Xrotation Yrotation
                  JOINT RightHandPinky2
                  {
                    OFFSET 0.0000 3.6852 0.0000
                    CHANNELS 3 Zrotation Xrotation Yrotation
                    JOINT RightHandPinky3
                    {
                      OFFSET 0.0000 2.3164 0.0000
                      CHANNELS 3 Zrotation Xrotation Yrotation
                      End Site
                      {
                        OFFSET 0.0000 1.1205 0.0000
                      }
                    }
                  }
                }
                JOINT RightHandRing1
                {
                  OFFSET -1.4937 8.0949 0.1068
                  CHANNELS 3 Zrotation Xrotation Yrotation
                  JOINT RightHandRing2
                  {
                    OFFSET 0.0000 4.5543 0.0000
                    CHANNELS 3 Zrotation Xrotation Yrotation
                    JOINT RightHandRing3
                    {
                      OFFSET 0.0000 2.9372 0.0000
                      CHANNELS 3 Zrotation Xrotation Yrotation
                      End Site
                      {
                        OFFSET 0.0000 1.3500 0.0000
                      }
                    }
                  }
                }
                JOINT RightHandThumb1
                {
                  OFFSET 2.8891 2.1558 0.0984
                  CHANNELS 3 Zrotation Xrotation Yrotation
                  JOINT RightHandThumb2
                  {
                    OFFSET 0.0000 4.1081 0.0000
                    CHANNELS 3 Zrotation Xrotation Yrotation
                    JOINT RightHandThumb3
                    {
                      OFFSET 0.0000 3.1181 0.0000
                      CHANNELS 3 Zrotation Xrotation Yrotation
                      End Site
                      {
                        OFFSET 0.0000 1.7295 0.0000
                      }
                    }
                  }
                }
              }
            }
          }
        }
      }
    }
  }
  JOINT LeftUpLeg
  {
    OFFSET 8.3288 0.0000 0.0000
    CHANNELS 3 Zrotation Xrotation Yrotation
    JOINT LeftLeg
    {
      OFFSET 0.0000 44.4203 0.0000
      CHANNELS 3 Zrotation Xrotation Yrotation
      JOINT LeftFoot
      {
        OFFSET 0.0000 44.5232 0.0000
        CHANNELS 3 Zrotation Xrotation Yrotation
        JOINT LeftToe
        {
          OFFSET 0.0000 14.9844 0.0000
          CHANNELS 3 Zrotation Xrotation Yrotation
          End Site
          {
            OFFSET 0.0000 3.5000 0.0000
          }
        }
      }
    }
  }
  JOINT RightUpLeg
  {
    OFFSET -8.3288 0.0000 0.0000
    CHANNELS 3 Zrotation Xrotation Yrotation
    JOINT RightLeg
    {
      OFFSET 0.0000 44.4203 0.0000
      CHANNELS 3 Zrotation Xrotation Yrotation
      JOINT RightFoot
      {
        OFFSET 0.0000 44.5232 0.0000
        CHANNELS 3 Zrotation Xrotation Yrotation
        JOINT RightToe
        {
          OFFSET 0.0000 14.9844 0.0000
          CHANNELS 3 Zrotation Xrotation Yrotation
          End Site
          {
            OFFSET 0.0000 3.5000 0.0000
          }
        }
      }
    }
  }
}
MOTION
Frames: 6
Frame Time: 0.016667
0.0000 96.6554 0.0000 -0.0000 0.0000 0.0000 -0.0000 0.0000 0.0000 -0.0000 0.0000 0.0000 -0.0000 0.0000 0.0000 -90.0000 0.0000 90.0000 -0.0000 0.0000 0.0000 -0.0000 0.0000 0.0000 -0.0000 0.0000 0.0000 0.0001 0.0000 0.0000 -0.0000 0.0000 0.0000 -0.0008 -0.0013 -0.0000 0.0001 -0.0004 0.0000 -0.0000 0.0000 0.0000 -0.0000 0.0000 0.0000 -0.0000 0.0003 0.0000 0.0003 -0.0006 0.0000 -0.0006 0.0004 0.0000 0.0001 0.0000 0.0000 -0.0000 0.0000 0.0000 -0.0002 -0.0010 -0.0000 30.0001 0.0002 -0.0001 -29.9998 0.0005 0.0002 -0.0000 0.0000 0.0000 -0.0000 0.0000 0.0000 -0.0000 0.0000 0.0000 90.0000 0.0001 -90.0000 -0.0000 0.0000 0.0000 -0.0000 0.0000 0.0000 -0.0000 0.0000 0.0000 0.0001 -0.0001 0.0000 -0.0000 0.0000 0.0000 0.0003 -0.0006 0.0000 0.0001 -0.0001 0.0000 -0.0000 0.0000 0.0000 -0.0000 0.0000 0.0000 0.0001 0.0007 -0.0000 0.0001 -0.0012 0.0000 0.0003 -0.0008 0.0000 -0.0000 0.0001 0.0000 -0.0000 0.0000 0.0000 -0.0000 -0.0009 0.0000 -29.9997 0.0002 0.0001 29.9996 -0.0003 0.0001 -0.0000 0.0000 0.0000 179.9999 0.0000 0.0000 0.0826 0.0001 -0.0000 -0.0827 64.6493 0.0000 -0.0000 25.3510 0.0000 180.0000 0.0000 0.0000 -0.0827 0.0000 0.0000 0.0827 64.6493 -0.0000 -0.0001 25.3508 0.0000
10.1003 96.4655 -31.8304 0.7247 -0.1748 -1.8468 0.3867 -0.0053 0.2638 0.3867 -0.0052 0.2638 0.3878 -0.0052 0.2646 -90.0000 -14.1862 90.0000 -38.6597 85.6550 53.2175 6.7286 1.4925 -42.5611 -0.4101 0.0629 -0.0211 0.0001 0.0000 0.0000 -0.0000 0.0000 0.0000 -0.0008 -0.0013 -0.0000 0.0001 -0.0004 0.0000 -0.0000 0.0000 0.0000 -0.0000 0.0000 0.0000 -0.0000 0.0002 0.0000 0.0003 -0.0006 0.0000 -0.0006 0.0004 0.0000 0.0001 0.0000 0.0000 -0.0000 0.0000 0.0000 -0.0002 -0.0010 -0.0000 30.0001 0.0002 -0.0001 -29.9998 0.0005 0.0002 -0.0000 0.0000 0.0000 -0.0821 2.2001 0.2512 -0.0821 2.2001 0.2512 87.8672 -19.4009 -88.4297 50.9196 80.5169 -62.7063 -6.3995 3.5570 36.9161 0.3914 0.1185 0.0243 0.0001 -0.0001 0.0000 -0.0000 0.0000 0.0000 0.0003 -0.0006 0.0000 0.0001 -0.0001 0.0000 -0.0000 0.0000 0.0000 -0.0000 0.0000 0.0000 0.0001 0.0007 -0.0000 0.0001 -0.0012 0.0000 0.0003 -0.0008 0.0000 -0.0000 0.0001 0.0000 -0.0000 0.0000 0.0000 -0.0000 -0.0008 0.0000 -29.9996 0.0002 0.0001 29.9996 -0.0003 0.0001 -0.0000 0.0000 0.0000 -179.9678 -0.9051 -4.3821 0.0821 -4.3229 -0.0199 25.8068 67.5475 -27.4351 -0.0000 25.3510 0.0000 -178.5159 1.6258 -3.4781 -0.0834 -6.5826 -0.0127 -14.1821 68.8886 15.1474 -0.0001 25.3508 0.0000
10.1217 96.4641 -31.8002 0.7203 -0.1593 -1.8183 0.3849 -0.0092 0.2596 0.3849 -0.0091 0.2596 0.3861 -0.0090 0.2603 -90.0000 -14.1972 90.0000 -37.9025 85.7035 52.5052 6.7492 1.3950 -42.4837 -0.4114 0.0636 -0.0210 0.0001 0.0000 0.0000 -0.0000 0.0000 0.0000 -0.0008 -0.0013 -0.0000 0.0001 -0.0004 0.0000 -0.0000 0.0000 0.0000 -0.0000 0.0000 0.0000 -0.0000 0.0002 0.0000 0.0003 -0.0006 0.0000 -0.0006 0.0004 0.0000 0.0001 0.0000 0.0000 -0.0000 0.0000 0.0000 -0.0002 -0.0010 -0.0000 30.0001 0.0002 -0.0001 -29.9998 0.0005 0.0002 -0.0000 0.0000 0.0000 -0.0852 2.2077 0.2504 -0.0852 2.2077 0.2504 87.8833 -19.3926 -88.4363 50.9441 80.5426 -62.7148 -6.4803 3.5555 36.8817 0.3916 0.1178 0.0245 0.0001 -0.0001 0.0000 -0.0000 0.0000 0.0000 0.0003 -0.0006 0.0000 0.0001 -0.0001 0.0000 -0.0000 0.0000 0.0000 -0.0000 0.0000 0.0000 0.0001 0.0007 -0.0000 0.0001 -0.0012 0.0000 0.0003 -0.0008 0.0000 -0.0000 0.0001 0.0000 -0.0000 0.0000 0.0000 -0.0000 -0.0009 0.0000 -29.9997 0.0002 0.0001 29.9996 -0.0003 0.0001 -0.0000 0.0000 0.0000 -179.9739 -0.9165 -4.3897 0.0820 -4.3057 -0.0196 25.7262 67.5903 -27.3582 -0.0000 25.3511 0.0000 -178.5302 1.7129 -3.4595 -0.0836 -6.7881 -0.0148 -14.3251 69.0164 15.2970 -0.0001 25.3508 0.0000
10.1262 96.4594 -31.7739 0.7116 -0.1384 -1.7829 0.3836 -0.0150 0.2539 0.3836 -0.0149 0.2539 0.3848 -0.0150 0.2547 -90.0000 -14.2095 90.0000 -36.8544 85.7588 51.5043 6.7502 1.2787 -42.3949 -0.4127 0.0645 -0.0208 0.0001 0.0000 0.0000 -0.0000 0.0000 0.0000 -0.0008 -0.0013 -0.0000 0.0001 -0.0004 0.0000 -0.0000 0.0000 0.0000 -0.0000 0.0000 0.0000 -0.0000 0.0002 0.0000 0.0003 -0.0006 0.0000 -0.0006 0.0004 0.0000 0.0001 0.0000 0.0000 -0.0000 0.0000 0.0000 -0.0002 -0.0010 -0.0000 30.0001 0.0002 -0.0001 -29.9998 0.0005 0.0002 -0.0000 0.0000 0.0000 -0.0896 2.2142 0.2519 -0.0896 2.2142 0.2519 87.9029 -19.3803 -88.4457 50.9673 80.5794 -62.7220 -6.5724 3.5496 36.8417 0.3910 0.1166 0.0247 0.0001 -0.0001 0.0000 -0.0000 0.0000 0.0000 0.0003 -0.0006 0.0000 0.0001 -0.0001 0.0000 -0.0000 0.0000 0.0000 -0.0000 0.0000 0.0000 0.0001 0.0007 -0.0000 0.0001 -0.0012 0.0000 0.0003 -0.0008 0.0000 -0.0000 0.0001 0.0000 -0.0000 0.0000 0.0000 -0.0000 -0.0008 0.0000 -29.9997 0.0002 0.0001 29.9996 -0.0003 0.0001 -0.0000 0.0000 0.0000 -179.9573 -0.8311 -4.3918 0.0821 -4.4660 -0.0189 25.7105 67.7152 -27.3697 -0.0000 25.3510 0.0000 -178.4949 1.9538 -3.4401 -0.0835 -7.2812 -0.0125 -14.6203 69.2757 15.5639 -0.0001 25.3508 0.0000
10.1335 96.4533 -31.7564 0.6965 -0.1206 -1.7534 0.3844 -0.0199 0.2478 0.3844 -0.0198 0.2478 0.3856 -0.0199 0.2486 -90.0000 -14.2219 90.0000 -35.7560 85.7948 50.4330 6.7024 1.1915 -42.3423 -0.4140 0.0654 -0.0206 0.0001 0.0000 0.0000 -0.0000 0.0000 0.0000 -0.0008 -0.0013 -0.0000 0.0001 -0.0004 0.0000 -0.0000 0.0000 0.0000 -0.0000 0.0000 0.0000 -0.0000 0.0002 0.0000 0.0003 -0.0006 0.0000 -0.0006 0.0004 0.0000 0.0001 0.0000 0.0000 -0.0000 0.0000 0.0000 -0.0002 -0.0010 -0.0000 30.0001 0.0002 -0.0001 -29.9998 0.0005 0.0001 -0.0000 0.0000 0.0000 -0.0946 2.2095 0.2589 -0.0946 2.2095 0.2589 87.9198 -19.3668 -88.4537 50.9554 80.6224 -62.7081 -6.6360 3.5339 36.8152 0.3921 0.1161 0.0249 0.0001 -0.0001 0.0000 -0.0000 0.0000 0.0000 0.0003 -0.0006 0.0000 0.0001 -0.0001 0.0000 -0.0000 0.0000 0.0000 -0.0000 0.0000 0.0000 0.0001 0.0007 -0.0000 0.0001 -0.0012 0.0000 0.0003 -0.0008 0.0000 -0.0000 0.0001 0.0000 -0.0000 0.0000 0.0000 -0.0000 -0.0009 0.0000 -29.9996 0.0002 0.0001 29.9996 -0.0003 0.0001 -0.0000 0.0000 0.0000 -179.9353 -0.7275 -4.3936 0.0820 -4.6596 -0.0185 25.7236 67.8430 -27.4097 -0.0000 25.3510 0.0000 -178.4523 2.2978 -3.4202 -0.0835 -7.9739 -0.0116 -14.9515 69.6288 15.8794 -0.0001 25.3508 0.0000
10.1474 96.4495 -31.7470 0.6816 -0.1026 -1.7257 0.3852 -0.0253 0.2423 0.3852 -0.0252 0.2423 0.3863 -0.0253 0.2431 -90.0000 -14.2333 90.0000 -34.5312 85.8247 49.2326 6.6294 1.1099 -42.2996 -0.4158 0.0664 -0.0203 0.0001 0.0000 0.0000 -0.0000 0.0000 0.0000 -0.0008 -0.0013 -0.0000 0.0001 -0.0004 0.0000 -0.0000 0.0000 0.0000 -0.0000 0.0000 0.0000 -0.0000 0.0002 0.0000 0.0003 -0.0006 0.0000 -0.0006 0.0004 0.0000 0.0001 0.0000 0.0000 -0.0000 0.0000 0.0000 -0.0002 -0.0010 -0.0000 30.0001 0.0002 -0.0001 -29.9998 0.0005 0.0002 -0.0000 0.0000 0.0000 -0.0996 2.2049 0.2679 -0.0996 2.2049 0.2679 87.9364 -19.3535 -88.4617 50.9470 80.6693 -62.7020 -6.6928 3.5136 36.7904 0.3923 0.1154 0.0250 0.0001 -0.0001 0.0000 -0.0000 0.0000 0.0000 0.0003 -0.0006 0.0000 0.0001 -0.0001 0.0000 -0.0000 0.0000 0.0000 -0.0000 0.0000 0.0000 0.0001 0.0007 -0.0000 0.0001 -0.0012 0.0000 0.0003 -0.0008 0.0000 -0.0000 0.0001 0.0000 -0.0000 0.0000 0.0000 -0.0000 -0.0008 0.0000 -29.9996 0.0002 0.0001 29.9996 -0.0003 0.0001 -0.0000 0.0000 0.0000 -179.9182 -0.6212 -4.3917 0.0820 -4.8473 -0.0183 25.7439 67.9590 -27.4515 -0.0000 25.3510 0.0000 -178.4201 2.6445 -3.4010 -0.0835 -8.6595 -0.0111 -15.2694 69.9739 16.1946 -0.0001 25.3508 0.0000
